<?xml version="1.0" standalone="no"?>
<!DOCTYPE svg PUBLIC "-//W3C//DTD SVG 20010904//EN"
 "http://www.w3.org/TR/2001/REC-SVG-20010904/DTD/svg10.dtd">
<svg version="1.0" xmlns="http://www.w3.org/2000/svg"
 width="225.000000pt" height="224.000000pt" viewBox="0 0 225.000000 224.000000"
 preserveAspectRatio="xMidYMid meet">
<metadata>
Created by potrace 1.10, written by Peter Selinger 2001-2011
</metadata>
<g transform="translate(0.000000,224.000000) scale(0.100000,-0.100000)"
fill="#833e3e" stroke="none">
<path d="M345 2220 c-9 -10 -24 -16 -34 -13 -12 3 -26 -5 -39 -22 -12 -15 -26
-24 -32 -20 -13 8 -50 -22 -50 -42 0 -7 -9 -13 -20 -13 -12 0 -28 -13 -39 -31
-10 -17 -28 -37 -40 -45 -11 -8 -21 -25 -21 -37 0 -12 -9 -28 -20 -35 -12 -7
-20 -23 -20 -41 0 -16 -6 -31 -15 -35 -12 -4 -15 -25 -15 -97 0 -79 2 -90 16
-85 9 3 18 6 20 6 11 0 2 31 -11 36 -15 6 -22 45 -8 43 23 -4 33 3 33 21 0 11
-7 20 -15 20 -9 0 -15 9 -15 21 0 15 5 19 15 15 36 -13 60 19 31 44 -21 17
-10 36 21 35 30 0 40 17 20 36 -21 22 -9 39 22 33 32 -7 49 10 32 30 -6 7 -9
21 -5 29 5 15 8 15 29 1 20 -13 24 -13 35 1 10 12 10 18 0 30 -21 26 4 43 29
21 26 -24 45 -11 37 25 -4 22 -2 29 11 29 9 0 21 -7 28 -17 18 -25 49 -9 41
21 -9 36 14 44 37 12 15 -21 22 -24 33 -15 8 6 14 20 14 30 0 26 26 24 33 -2
7 -28 41 -21 45 9 3 21 1 22 -82 21 -68 -1 -88 -4 -101 -19z"/>
<path d="M567 2234 c-10 -10 12 -44 27 -44 13 0 26 20 26 41 0 10 -43 12 -53
3z"/>
<path d="M652 2206 c4 -37 28 -42 43 -8 15 35 43 29 41 -10 -1 -39 32 -54 41
-19 6 23 11 25 32 12 12 -8 12 -12 2 -25 -16 -19 -8 -46 14 -46 8 0 20 9 27
19 17 28 42 8 27 -21 -21 -39 14 -66 41 -33 10 12 16 13 27 4 11 -10 11 -15
-3 -30 -18 -20 -13 -49 9 -49 8 0 20 7 27 15 11 13 14 13 24 1 8 -9 44 -15
116 -19 65 -4 138 -15 190 -30 47 -13 97 -24 113 -25 27 -2 36 11 17 23 -19
12 0 26 20 15 24 -13 37 5 20 25 -10 12 -9 15 3 15 9 0 19 -5 22 -10 10 -17
26 0 20 21 -7 20 9 27 20 9 10 -17 25 -11 25 9 0 25 16 36 24 16 8 -22 26 -18
26 5 0 11 7 20 15 20 8 0 14 -6 12 -12 -1 -7 5 -13 13 -13 8 0 14 6 13 13 -2
6 4 12 12 12 8 0 15 -7 15 -15 0 -8 7 -15 15 -15 8 0 15 7 15 15 0 8 5 15 10
15 6 0 10 -9 10 -20 0 -11 7 -20 15 -20 8 0 15 7 15 15 0 8 6 15 14 15 9 0 12
-7 9 -19 -6 -25 11 -35 27 -16 19 23 31 18 24 -10 -6 -25 8 -35 21 -15 3 6 13
10 22 10 13 0 13 -3 3 -15 -18 -21 2 -44 23 -27 18 15 30 3 16 -14 -15 -19 -1
-38 16 -24 8 7 19 9 25 5 8 -5 6 -11 -6 -19 -22 -16 -9 -39 17 -31 11 4 19 2
19 -4 0 -6 -4 -11 -10 -11 -5 0 -10 -7 -10 -15 0 -8 9 -15 20 -15 23 0 27 -15
5 -24 -24 -9 -17 -26 10 -26 30 0 33 -16 4 -25 -23 -8 -20 -31 5 -29 24 2 20
-23 -5 -29 -23 -6 -17 -27 7 -27 8 0 14 -4 14 -10 0 -5 -9 -10 -19 -10 -28 0
-37 -20 -13 -27 12 -3 18 -11 16 -18 -3 -7 -14 -11 -25 -8 -13 4 -19 0 -19
-11 0 -9 5 -16 10 -16 6 0 10 -6 10 -14 0 -9 -7 -12 -20 -9 -22 6 -29 -22 -7
-30 9 -3 9 -8 1 -17 -8 -8 -14 -9 -18 -1 -13 21 -28 11 -22 -14 6 -24 4 -25
-20 -19 -25 6 -26 5 -20 -20 7 -28 -2 -33 -23 -13 -12 10 -13 8 -6 -8 37 -97
48 -143 58 -225 5 -52 14 -99 18 -104 5 -5 19 -2 33 8 35 22 39 20 32 -14 -7
-39 11 -48 54 -27 28 15 29 14 20 -3 -13 -23 -13 -57 -1 -64 5 -4 21 -2 36 4
24 9 26 8 20 -7 -4 -10 -10 -28 -12 -40 -5 -21 -1 -23 31 -23 40 0 43 -4 21
-26 -8 -9 -15 -24 -15 -35 0 -14 7 -19 30 -19 35 0 39 -14 10 -32 -11 -7 -20
-18 -20 -25 0 -13 30 -33 49 -33 15 0 14 27 -1 33 -10 4 -10 7 0 18 20 21 14
49 -13 61 -19 8 -22 14 -14 24 14 18 2 52 -21 59 -12 4 -20 17 -22 38 -2 27
-8 33 -30 35 -22 3 -28 9 -28 27 0 28 -16 41 -47 36 -17 -2 -23 3 -23 17 0 29
-24 46 -48 33 -18 -10 -20 -6 -26 47 -4 31 -16 90 -27 130 -10 40 -19 76 -19
82 0 5 18 25 39 45 40 37 107 158 96 174 -3 5 -1 12 4 15 10 7 9 136 -2 153
-4 6 -5 18 -2 25 3 8 -1 21 -10 28 -8 7 -15 19 -15 26 0 8 -6 24 -12 37 -18
31 -110 127 -123 127 -6 0 -16 5 -23 12 -15 15 -83 38 -94 32 -5 -3 -14 -2
-21 3 -14 11 -110 10 -147 -1 -30 -9 -70 -25 -90 -37 -8 -5 -24 -13 -36 -18
-11 -5 -34 -25 -52 -45 -33 -38 -42 -42 -70 -26 -40 22 -134 42 -227 47 -100
5 -155 19 -155 39 0 19 -40 53 -55 48 -10 -4 -15 0 -15 14 0 26 -25 46 -50 39
-13 -3 -20 0 -20 8 0 23 -40 45 -61 35 -14 -8 -19 -6 -24 10 -5 16 -15 19 -56
18 -50 -1 -50 -1 -47 -32z"/>
<path d="M424 2112 c-106 -37 -139 -78 -111 -136 19 -41 110 -89 202 -107 l60
-12 77 41 c43 23 109 51 148 63 38 11 70 25 70 29 0 13 -68 69 -113 91 -98 51
-238 63 -333 31z m206 -22 c57 -11 164 -55 180 -75 7 -9 -9 -19 -63 -40 -39
-16 -94 -42 -121 -58 -54 -31 -74 -31 -170 0 -71 23 -115 51 -122 78 -7 30 0
41 39 62 72 38 167 50 257 33z"/>
<path d="M1653 2014 c3 -10 8 -29 11 -40 5 -16 17 -23 49 -27 43 -5 80 -18
108 -39 13 -9 24 -7 54 12 l37 23 -23 19 c-52 41 -105 61 -173 66 -63 4 -68 3
-63 -14z m160 -40 c40 -21 40 -21 33 -32 -3 -5 -26 1 -53 14 -25 13 -59 24
-75 24 -15 0 -28 5 -28 11 0 16 80 4 123 -17z"/>
<path d="M1549 1991 c-43 -27 -97 -78 -88 -83 2 -2 19 -11 37 -21 l33 -19 34
30 c18 17 42 33 53 36 18 6 19 11 10 46 -6 22 -16 40 -22 40 -7 0 -32 -13 -57
-29z m51 -23 c-1 -13 -63 -58 -81 -58 -20 0 -7 21 28 45 42 28 53 31 53 13z"/>
<path d="M893 1993 c9 -2 23 -2 30 0 6 3 -1 5 -18 5 -16 0 -22 -2 -12 -5z"/>
<path d="M232 1938 c-25 -25 -6 -68 30 -68 26 0 45 44 28 65 -15 18 -41 20
-58 3z"/>
<path d="M970 1921 c-27 -4 4 -7 80 -7 137 -1 223 -17 324 -61 193 -84 336
-232 428 -442 16 -36 27 -53 23 -38 -10 49 -74 170 -127 241 -163 218 -461
343 -728 307z"/>
<path d="M1889 1899 l-26 -33 21 -35 c13 -23 20 -52 20 -87 0 -51 1 -52 35
-63 42 -13 51 -4 51 55 0 55 -26 138 -53 170 l-23 26 -25 -33z m50 -45 c6 -14
14 -53 18 -86 5 -50 4 -60 -8 -56 -8 3 -17 25 -20 55 -4 27 -12 59 -18 71 -12
22 -8 42 8 42 4 0 13 -12 20 -26z"/>
<path d="M810 1884 c-281 -96 -478 -323 -535 -616 -7 -38 -10 -68 -6 -68 4 0
11 30 17 68 31 198 169 405 345 519 81 52 118 69 219 99 41 13 66 23 55 23
-11 0 -54 -11 -95 -25z"/>
<path d="M1625 1884 c-55 -28 -60 -39 -29 -63 14 -11 40 -21 56 -21 27 0 137
57 138 71 0 12 -53 29 -93 29 -23 0 -55 -7 -72 -16z m76 -34 c-25 -21 -66 -26
-76 -10 -8 13 31 29 70 29 l30 0 -24 -19z"/>
<path d="M145 1816 c-51 -51 -47 -205 9 -319 19 -40 43 -82 53 -95 l19 -24 13
44 c18 58 56 132 98 192 l35 49 -17 31 c-31 54 -86 116 -115 131 -41 21 -67
19 -95 -9z m89 -25 c30 -19 67 -61 92 -105 10 -16 5 -29 -25 -76 -20 -31 -47
-79 -60 -108 -14 -29 -28 -52 -31 -52 -4 0 -20 28 -36 63 -26 56 -29 73 -29
165 0 91 2 105 19 118 26 18 33 18 70 -5z"/>
<path d="M505 1828 c-11 -6 -39 -31 -62 -55 -23 -25 -46 -42 -50 -40 -5 3 -8
-8 -9 -25 l-1 -29 46 49 c25 26 64 63 86 80 38 31 32 44 -10 20z"/>
<path d="M1792 1771 c-48 -68 -51 -90 -20 -131 25 -35 38 -29 69 31 22 43 24
91 6 132 l-12 28 -43 -60z m27 -82 c-6 -17 -17 -28 -23 -26 -20 7 -17 43 6 72
23 29 23 30 26 6 2 -12 -2 -36 -9 -52z"/>
<path d="M1676 1762 c-3 -5 11 -24 31 -43 21 -19 31 -26 24 -17 -7 9 -10 21
-7 27 10 16 -5 41 -24 41 -11 0 -21 -4 -24 -8z"/>
<path d="M0 1581 c0 -66 4 -92 15 -101 8 -7 15 -22 15 -35 0 -12 9 -30 20 -40
11 -10 20 -24 20 -32 0 -8 10 -24 23 -37 65 -67 69 -79 68 -209 -1 -80 4 -143
14 -182 9 -33 18 -70 20 -82 3 -12 14 -43 25 -68 25 -59 25 -77 0 -100 -11
-10 -20 -23 -20 -28 0 -6 -8 -19 -17 -29 -9 -10 -17 -27 -18 -37 -1 -11 -7
-26 -14 -35 -7 -9 -11 -25 -8 -36 3 -11 1 -23 -4 -26 -5 -3 -9 -20 -8 -37 1
-18 -2 -39 -5 -48 -4 -10 -3 -20 3 -23 6 -4 8 -20 5 -35 -4 -16 -1 -32 5 -35
6 -4 11 -18 11 -31 0 -40 51 -124 116 -191 35 -35 68 -64 75 -64 7 0 20 -7 30
-16 9 -8 42 -18 73 -21 52 -5 56 -4 56 16 0 25 -25 28 -39 4 -8 -16 -11 -15
-20 10 -10 26 -31 38 -31 17 0 -5 -7 -10 -15 -10 -8 0 -15 8 -15 18 0 26 -11
34 -26 21 -18 -15 -33 -3 -27 22 5 17 2 20 -23 17 -19 -2 -28 1 -27 9 2 7 4
19 5 25 2 7 -6 13 -17 14 -35 2 -38 4 -25 19 15 18 3 38 -18 30 -23 -8 -34 16
-14 32 14 11 15 14 3 22 -8 5 -20 7 -28 4 -19 -7 -16 17 4 32 18 14 8 39 -13
31 -24 -9 -26 14 -2 34 l23 20 -22 6 c-13 3 -23 12 -23 19 0 7 10 16 23 19
l22 7 -22 16 c-28 19 -29 29 -3 36 23 6 26 25 6 33 -8 3 -12 12 -10 19 3 8 12
11 19 9 18 -7 30 15 16 29 -18 18 -13 39 8 32 24 -7 37 11 21 30 -16 20 -3 40
16 24 20 -17 44 5 26 23 -16 16 -15 31 2 25 10 -4 5 16 -15 59 -53 117 -72
220 -67 382 3 132 0 159 -18 131 -11 -19 -23 12 -17 45 6 28 5 29 -25 23 -34
-7 -51 13 -27 33 21 17 7 43 -21 36 -28 -7 -37 12 -17 36 18 20 9 38 -18 38
-26 0 -37 30 -16 42 23 13 21 38 -3 38 -24 0 -28 35 -5 44 27 10 11 46 -21 46
-2 0 -4 -40 -4 -89z"/>
<path d="M1875 1633 c-10 -15 -27 -35 -37 -44 -18 -16 -18 -18 -1 -53 9 -20
19 -36 22 -36 19 1 111 109 111 130 0 4 -11 11 -24 14 -13 3 -31 8 -39 11 -8
4 -21 -5 -32 -22z m49 -25 c-24 -41 -47 -67 -55 -63 -14 9 -11 20 12 49 20 26
57 38 43 14z"/>
<path d="M1120 1620 c-222 -41 -409 -208 -487 -432 -33 -95 -37 -269 -8 -363
16 -54 81 -205 88 -205 1 0 3 17 4 39 1 21 13 71 27 110 62 177 183 309 357
391 71 32 202 64 231 55 41 -14 13 8 -49 38 -64 30 -75 32 -176 32 -104 0
-110 -1 -129 -25 -11 -14 -35 -42 -54 -62 -19 -20 -34 -39 -34 -42 0 -3 21 8
47 24 82 52 221 83 293 64 32 -9 38 -13 19 -13 -97 -3 -300 -116 -387 -215
-66 -76 -132 -196 -153 -282 l-12 -48 -14 40 c-11 28 -13 74 -11 167 2 71 1
120 -3 110 -4 -10 -8 -56 -9 -103 l-1 -85 -14 40 c-8 22 -14 54 -13 70 1 17
-2 40 -6 53 -4 12 -4 22 1 22 5 0 7 17 5 39 -5 46 20 146 52 217 30 65 112
170 170 217 83 69 236 130 294 118 8 -1 20 3 27 9 13 11 124 12 152 3 6 -3 9
-11 6 -19 -3 -9 2 -14 16 -14 12 0 21 4 21 10 0 10 20 9 50 -3 8 -3 29 -9 45
-13 l30 -8 -30 -3 c-51 -6 -156 -44 -240 -85 -84 -42 -219 -138 -229 -163 -9
-25 6 -17 78 41 112 90 275 164 414 188 l77 13 -35 18 c-98 51 -293 77 -410
55z m0 -361 c0 -5 -4 -8 -9 -5 -4 3 -36 -4 -70 -15 -61 -21 -86 -20 -63 3 20
20 142 35 142 17z"/>
<path d="M1260 1579 c-155 -22 -330 -119 -428 -237 -23 -27 -42 -54 -42 -60 0
-6 -4 -12 -8 -14 -23 -10 -103 -186 -101 -226 0 -9 8 8 18 38 78 245 307 445
554 483 37 6 67 14 67 19 0 4 -1 7 -2 7 -2 -1 -28 -5 -58 -10z"/>
<path d="M197 1350 c-3 -11 -1 -23 4 -26 5 -3 9 -1 9 5 0 5 3 16 6 25 3 9 2
16 -4 16 -5 0 -12 -9 -15 -20z"/>
<path d="M1832 1325 c0 -11 3 -29 8 -40 11 -25 11 1 0 35 -6 20 -8 21 -8 5z"/>
<path d="M1853 1135 c-2 -202 -48 -344 -164 -497 -95 -127 -265 -240 -424
-283 -229 -61 -495 -7 -684 139 -186 143 -289 344 -310 604 -7 83 -8 88 -10
36 -3 -135 42 -299 117 -429 47 -81 190 -222 277 -273 322 -190 738 -131 992
141 157 169 240 407 215 622 -8 64 -8 60 -9 -60z"/>
<path d="M1941 1094 c0 -11 3 -14 6 -6 3 7 2 16 -1 19 -3 4 -6 -2 -5 -13z"/>
<path d="M1939 1048 c0 -7 -4 -35 -9 -63 -7 -45 -6 -53 15 -75 13 -14 35 -51
50 -83 l25 -58 53 3 52 3 -3 35 c-4 51 -49 138 -97 186 -51 50 -85 71 -86 52z
m106 -122 c19 -28 38 -69 42 -89 5 -35 4 -37 -20 -37 -21 0 -31 9 -48 43 -12
23 -30 53 -40 66 -11 14 -19 40 -19 63 0 38 0 38 24 23 14 -9 41 -40 61 -69z"/>
<path d="M1900 865 c-1 -54 -90 -216 -177 -324 -22 -27 -24 -32 -8 -23 11 6
41 14 66 17 159 20 234 205 135 330 -15 20 -15 20 -16 0z m30 -128 c0 -58 -23
-110 -59 -137 -27 -18 -81 -37 -81 -27 0 3 20 37 43 76 24 38 52 91 62 117 21
55 35 44 35 -29z"/>
<path d="M2222 764 c-27 -19 -28 -40 -3 -54 28 -15 29 -14 29 30 0 22 0 40 -1
40 -2 0 -13 -7 -25 -16z"/>
<path d="M290 697 c0 -14 24 -57 32 -57 5 0 1 12 -9 28 -22 35 -23 36 -23 29z"/>
<path d="M2218 678 c-33 -11 -35 -24 -7 -54 l21 -22 -31 -7 c-34 -7 -42 -34
-16 -55 24 -20 17 -30 -15 -24 -38 8 -49 -15 -25 -52 l17 -27 -36 7 c-43 8
-53 -5 -36 -48 9 -25 8 -27 -7 -21 -10 4 -29 10 -42 13 -22 4 -23 2 -19 -32 5
-41 2 -43 -31 -20 -27 19 -43 8 -43 -30 0 -32 -5 -32 -36 -3 -23 22 -24 22
-38 3 -8 -11 -14 -29 -14 -40 -1 -19 -3 -18 -21 6 -27 37 -46 35 -63 -4 l-14
-33 -12 32 c-15 40 -32 42 -58 6 l-20 -27 -6 31 c-9 39 -29 48 -52 22 -24 -27
-34 -24 -34 10 0 41 -15 46 -52 20 -27 -20 -31 -20 -25 -5 4 10 7 21 7 26 0 4
14 13 30 20 17 7 30 16 30 20 0 5 -48 -16 -107 -46 -63 -32 -143 -63 -192 -75
-88 -21 -254 -30 -306 -16 -24 7 -28 6 -18 -4 20 -20 15 -30 -11 -23 -29 7
-41 -9 -21 -29 23 -23 18 -29 -15 -22 -23 5 -30 3 -30 -9 0 -8 5 -18 10 -21
17 -10 0 -26 -21 -20 -28 9 -41 -2 -29 -25 12 -23 -8 -33 -28 -13 -19 19 -35
5 -28 -23 7 -27 -5 -32 -24 -9 -15 18 -30 11 -30 -16 0 -24 -19 -25 -36 -2
-12 17 -13 16 -22 -7 -9 -23 -7 -25 20 -28 17 -2 37 0 46 4 10 4 24 6 34 5 9
-1 22 6 30 16 7 10 20 19 28 21 8 2 22 12 32 22 9 11 21 20 27 20 6 0 16 10
22 23 7 12 18 27 26 32 8 6 19 22 26 35 12 24 18 25 132 32 66 4 138 11 160
17 94 23 114 29 173 56 48 22 65 25 76 16 8 -7 25 -9 40 -5 19 4 26 2 26 -9 0
-26 26 -40 51 -26 20 10 25 8 42 -15 l19 -27 24 22 24 23 16 -22 c19 -28 40
-28 54 -1 11 19 13 19 29 5 25 -23 46 -20 61 8 12 23 14 24 36 9 19 -12 27
-13 39 -3 8 7 15 21 15 32 0 15 3 17 19 8 27 -14 50 -3 57 27 5 18 12 23 25
20 22 -6 54 27 46 48 -5 11 0 15 18 15 26 0 48 29 40 52 -3 7 5 18 17 23 18 8
23 18 21 45 -1 24 4 38 18 48 21 14 25 47 8 58 -8 5 -8 9 1 14 7 4 10 14 8 22
-2 12 -9 13 -30 6z"/>
<path d="M1986 621 c-48 -95 -159 -153 -256 -135 -43 9 -47 7 -97 -31 -28 -22
-52 -42 -52 -45 -1 -3 25 -15 56 -25 91 -31 193 -26 276 12 81 39 150 106 184
180 32 69 25 85 -40 90 l-46 4 -25 -50z m94 -8 c0 -26 -59 -110 -100 -143 -75
-59 -179 -86 -276 -70 -31 5 -59 12 -62 14 -3 3 6 14 19 25 19 15 34 18 75 14
104 -11 207 42 260 133 21 36 31 44 55 44 20 0 29 -5 29 -17z"/>
<path d="M315 606 c-17 -25 -17 -28 -1 -45 28 -31 17 -73 -22 -91 -33 -15 -34
-15 -29 -75 3 -33 13 -77 22 -97 16 -32 22 -36 46 -31 40 8 73 -28 65 -72 -6
-32 -5 -33 54 -59 68 -29 140 -35 140 -12 0 43 66 60 99 27 19 -19 20 -19 63
8 24 15 57 46 74 67 l32 40 -85 29 c-149 50 -317 174 -415 304 l-26 34 -17
-27z m275 -258 c41 -26 106 -59 143 -73 37 -15 66 -33 64 -39 -2 -6 -22 -24
-45 -40 -39 -28 -43 -29 -60 -13 -28 26 -67 21 -105 -13 -40 -35 -47 -36 -110
-14 -39 13 -47 20 -47 41 0 52 -49 103 -100 103 -14 0 -22 11 -29 38 -17 59
-13 82 19 112 17 16 33 42 36 59 l7 31 76 -73 c42 -40 110 -93 151 -119z"/>
<path d="M254 529 c-10 -17 13 -36 27 -22 12 12 4 33 -11 33 -5 0 -12 -5 -16
-11z"/>
<path d="M883 253 c9 -2 23 -2 30 0 6 3 -1 5 -18 5 -16 0 -22 -2 -12 -5z"/>
<path d="M324 219 c-10 -17 13 -36 27 -22 12 12 4 33 -11 33 -5 0 -12 -5 -16
-11z"/>
<path d="M632 114 c4 -21 22 -23 26 -1 2 10 -3 17 -13 17 -10 0 -15 -6 -13
-16z"/>
<path d="M537 24 c-13 -13 -7 -24 14 -24 11 0 19 5 17 12 -5 14 -22 21 -31 12z"/>
<path d="M597 24 c-13 -13 -7 -24 14 -24 11 0 19 5 17 12 -5 14 -22 21 -31 12z"/>
</g>
</svg>
